<svg width="128" height="128" viewBox="0 0 128 128" fill="none" xmlns="http://www.w3.org/2000/svg">
<path d="M122.337 64.0003C122.337 96.2186 96.2186 122.337 64.0003 122.337C31.7821 122.337 5.66406 96.2186 5.66406 64.0003C5.66406 31.7821 31.7821 5.66406 64.0003 5.66406C96.2186 5.66406 122.337 31.7821 122.337 64.0003Z" fill="white"/>
<path fill-rule="evenodd" clip-rule="evenodd" d="M64 16.9912C38.0377 16.9912 16.9912 38.0377 16.9912 64C16.9912 89.9623 38.0377 111.009 64 111.009C89.9623 111.009 111.009 89.9623 111.009 64C111.009 38.0377 89.9623 16.9912 64 16.9912ZM0 64C0 28.6538 28.6538 0 64 0C99.3462 0 128 28.6538 128 64C128 99.3462 99.3462 128 64 128C28.6538 128 0 99.3462 0 64Z" fill="url(#paint0_linear_839_63)"/>
<path d="M27.1855 43.0439H34.6018C39.546 43.0439 42.8892 43.2371 44.6313 43.6233C46.3899 44.0095 47.8168 45.0002 48.9118 46.5954C50.0234 48.1738 50.5792 50.701 50.5792 54.1769C50.5792 57.3505 50.1893 59.4831 49.4096 60.5745C48.6298 61.666 47.0951 62.3209 44.8055 62.5392C46.8794 63.0597 48.2731 63.7566 48.9865 64.6297C49.6999 65.5029 50.1396 66.3089 50.3055 67.0477C50.488 67.7698 50.5792 69.7764 50.5792 73.0676V83.8227H40.8485V70.2718C40.8485 68.0888 40.6743 66.7371 40.3258 66.2166C39.994 65.696 39.1064 65.4357 37.6629 65.4357V83.8227H27.1855V43.0439ZM37.6629 50.0209V59.0885C38.8409 59.0885 39.6622 58.9289 40.1267 58.6099C40.6079 58.2741 40.8485 57.2078 40.8485 55.4111V53.1694C40.8485 51.8764 40.6162 51.0284 40.1516 50.6254C39.7037 50.2224 38.8741 50.0209 37.6629 50.0209Z" fill="#250000"/>
<path d="M54.6607 43.0439H65.1132C68.4149 43.0439 70.9119 43.3042 72.6042 43.8248C74.3131 44.3453 75.6901 45.4032 76.7354 46.9984C77.7806 48.5768 78.3033 51.1292 78.3033 54.6554C78.3033 57.0399 77.93 58.7022 77.1834 59.6426C76.4533 60.5829 75.0016 61.305 72.8281 61.8087C75.2505 62.3629 76.893 63.2864 77.7558 64.5794C78.6185 65.8555 79.0499 67.8202 79.0499 70.4733V74.2514C79.0499 77.0053 78.7346 79.0455 78.1042 80.372C77.4903 81.6985 76.5031 82.6053 75.1426 83.0923C73.7821 83.5792 70.9948 83.8227 66.7806 83.8227H54.6607V43.0439ZM65.1381 50.0209V59.0885C65.5861 59.0717 65.9345 59.0633 66.1833 59.0633C67.212 59.0633 67.8674 58.8114 68.1494 58.3076C68.4315 57.7871 68.5725 56.3178 68.5725 53.8998C68.5725 52.6236 68.4563 51.7337 68.2241 51.2299C67.9918 50.7094 67.6848 50.3819 67.3032 50.2476C66.9382 50.1133 66.2165 50.0377 65.1381 50.0209ZM65.1381 65.4357V76.8457C66.6147 76.7954 67.5521 76.5603 67.9503 76.1405C68.3651 75.7207 68.5725 74.688 68.5725 73.0424V69.2391C68.5725 67.4927 68.39 66.4348 68.025 66.0654C67.66 65.696 66.6977 65.4861 65.1381 65.4357Z" fill="#250000"/>
<path d="M93.3101 43.0439V75.6619H99.6811V83.8227H82.8327V43.0439H93.3101Z" fill="#250000"/>
<defs>
<linearGradient id="paint0_linear_839_63" x1="64.0999" y1="125.979" x2="64.0999" y2="1.68087" gradientUnits="userSpaceOnUse">
<stop stop-color="#CB3535"/>
<stop offset="0.993489" stop-color="#F33F3F"/>
</linearGradient>
</defs>
</svg>
